<?xml version="1.0" encoding="UTF-8" standalone="no"?>
<!-- Created with Inkscape (http://www.inkscape.org/) -->
<svg
   xmlns:svg="http://www.w3.org/2000/svg"
   xmlns="http://www.w3.org/2000/svg"
   version="1.0"
   width="504.29999"
   height="504.29999"
   id="svg7630">
  <defs
     id="defs7632" />
  <g
     transform="translate(-127.99506,-169.92276)"
     id="layer1">
    <g
       transform="translate(3.0022089,3.0022099)"
       id="g7981">
      <path
         d="M 620.77597 419.07056 A 242.8035 242.8035 0 1 1  135.16898,419.07056 A 242.8035 242.8035 0 1 1  620.77597 419.07056 z"
         transform="matrix(0.7852388,0,0,0.7852388,80.344187,90.000076)"
         style="fill:none;fill-opacity:1;stroke:#000000;stroke-width:5.09399176;stroke-linecap:round;stroke-linejoin:round;stroke-miterlimit:4;stroke-dasharray:none;stroke-dashoffset:0;stroke-opacity:1"
         id="path7720" />
      <path
         d="M 620.77597 419.07056 A 242.8035 242.8035 0 1 1  135.16898,419.07056 A 242.8035 242.8035 0 1 1  620.77597 419.07056 z"
         transform="matrix(0.9923312,0,0,0.9923312,2.0689749,3.2137642)"
         style="fill:none;fill-opacity:1;stroke:#000000;stroke-width:4.0309124;stroke-linecap:round;stroke-linejoin:round;stroke-miterlimit:4;stroke-dasharray:none;stroke-dashoffset:0;stroke-opacity:1"
         id="path7714" />
      <path
         d="M 620.77597 419.07056 A 242.8035 242.8035 0 1 1  135.16898,419.07056 A 242.8035 242.8035 0 1 1  620.77597 419.07056 z"
         transform="matrix(1.0178922,0,0,1.0178922,-7.5923872,-7.4981069)"
         style="fill:none;fill-opacity:1;stroke:#000000;stroke-width:3.92968917;stroke-linecap:round;stroke-linejoin:round;stroke-miterlimit:4;stroke-dasharray:none;stroke-dashoffset:0;stroke-opacity:1"
         id="path7716" />
      <path
         d="M 620.77597 419.07056 A 242.8035 242.8035 0 1 1  135.16898,419.07056 A 242.8035 242.8035 0 1 1  620.77597 419.07056 z"
         transform="matrix(7.2174802e-2,0,0,7.2174802e-2,349.86276,388.82421)"
         style="fill:none;fill-opacity:1;stroke:#000000;stroke-width:55.42100525;stroke-linecap:round;stroke-linejoin:round;stroke-miterlimit:4;stroke-dasharray:none;stroke-dashoffset:0;stroke-opacity:1"
         id="path7718" />
      <path
         d="M 377.34668,266.36853 L 438.05401,371.51671 L 316.63935,371.51671 L 377.34668,266.36853 z "
         transform="matrix(0.5748783,0,0,1.0199282,161.04406,-9.1655727)"
         style="fill:none;fill-opacity:1;stroke:#000000;stroke-width:5.15067482;stroke-linecap:square;stroke-linejoin:miter;stroke-miterlimit:4;stroke-dasharray:none;stroke-dashoffset:0;stroke-opacity:1"
         id="path7722" />
      <path
         d="M 382.42022 242.23512 A 4.3130102 4.3130102 0 1 1  373.7942,242.23512 A 4.3130102 4.3130102 0 1 1  382.42022 242.23512 z"
         transform="matrix(1.4166667,0,0,1.4166667,-157.67941,-100.9313)"
         style="fill:#000000;fill-opacity:1;stroke:none;stroke-width:3.94400001;stroke-linecap:square;stroke-linejoin:miter;stroke-miterlimit:4;stroke-dasharray:none;stroke-dashoffset:0;stroke-opacity:1"
         id="path7724" />
      <g
         style="fill:#000000"
         id="g7730">
        <path
           d="M 382.42022 242.23512 A 4.3130102 4.3130102 0 1 1  373.7942,242.23512 A 4.3130102 4.3130102 0 1 1  382.42022 242.23512 z"
           transform="matrix(1.4166667,0,0,1.4166667,-144.38096,-87.632852)"
           style="fill:#000000;fill-opacity:1;stroke:none;stroke-width:3.94400001;stroke-linecap:square;stroke-linejoin:miter;stroke-miterlimit:4;stroke-dasharray:none;stroke-dashoffset:0;stroke-opacity:1"
           id="path7726" />
        <path
           d="M 382.42022 242.23512 A 4.3130102 4.3130102 0 1 1  373.7942,242.23512 A 4.3130102 4.3130102 0 1 1  382.42022 242.23512 z"
           transform="matrix(1.4166667,0,0,1.4166667,-171.33727,-87.632852)"
           style="fill:#000000;fill-opacity:1;stroke:none;stroke-width:3.94400001;stroke-linecap:square;stroke-linejoin:miter;stroke-miterlimit:4;stroke-dasharray:none;stroke-dashoffset:0;stroke-opacity:1"
           id="path7728" />
      </g>
      <path
         d="M 377.34668,266.36853 L 438.05401,371.51671 L 316.63935,371.51671 L 377.34668,266.36853 z "
         transform="matrix(0.1779707,0.5466365,-0.9698227,0.3157491,717.54784,79.887228)"
         style="fill:none;fill-opacity:1;stroke:#000000;stroke-width:5.15067482;stroke-linecap:square;stroke-linejoin:miter;stroke-miterlimit:4;stroke-dasharray:none;stroke-dashoffset:0;stroke-opacity:1"
         id="path7743" />
      <path
         d="M 382.42022 242.23512 A 4.3130102 4.3130102 0 1 1  373.7942,242.23512 A 4.3130102 4.3130102 0 1 1  382.42022 242.23512 z"
         transform="matrix(0.4385713,1.3470708,-1.3470708,0.4385713,706.13512,-251.58728)"
         style="fill:#000000;fill-opacity:1;stroke:none;stroke-width:3.94400001;stroke-linecap:square;stroke-linejoin:miter;stroke-miterlimit:4;stroke-dasharray:none;stroke-dashoffset:0;stroke-opacity:1"
         id="path7745" />
      <g
         transform="matrix(0.3095797,0.9508735,-0.9508735,0.3095797,658.97657,-70.407826)"
         style="fill:#000000"
         id="g7747">
        <path
           d="M 382.42022 242.23512 A 4.3130102 4.3130102 0 1 1  373.7942,242.23512 A 4.3130102 4.3130102 0 1 1  382.42022 242.23512 z"
           transform="matrix(1.4166667,0,0,1.4166667,-144.38096,-87.632852)"
           style="fill:#000000;fill-opacity:1;stroke:none;stroke-width:3.94400001;stroke-linecap:square;stroke-linejoin:miter;stroke-miterlimit:4;stroke-dasharray:none;stroke-dashoffset:0;stroke-opacity:1"
           id="path7749" />
        <path
           d="M 382.42022 242.23512 A 4.3130102 4.3130102 0 1 1  373.7942,242.23512 A 4.3130102 4.3130102 0 1 1  382.42022 242.23512 z"
           transform="matrix(1.4166667,0,0,1.4166667,-171.33727,-87.632852)"
           style="fill:#000000;fill-opacity:1;stroke:none;stroke-width:3.94400001;stroke-linecap:square;stroke-linejoin:miter;stroke-miterlimit:4;stroke-dasharray:none;stroke-dashoffset:0;stroke-opacity:1"
           id="path7751" />
      </g>
      <path
         d="M 377.34668,266.36853 L 438.05401,371.51671 L 316.63935,371.51671 L 377.34668,266.36853 z "
         transform="matrix(-0.4637635,0.3397182,-0.6027158,-0.8227924,805.74386,635.45778)"
         style="fill:none;fill-opacity:1;stroke:#000000;stroke-width:5.15067482;stroke-linecap:square;stroke-linejoin:miter;stroke-miterlimit:4;stroke-dasharray:none;stroke-dashoffset:0;stroke-opacity:1"
         id="path7755" />
      <path
         d="M 382.42022 242.23512 A 4.3130102 4.3130102 0 1 1  373.7942,242.23512 A 4.3130102 4.3130102 0 1 1  382.42022 242.23512 z"
         transform="matrix(-1.1428477,0.8371642,-0.8371642,-1.1428477,1117.0912,521.14041)"
         style="fill:#000000;fill-opacity:1;stroke:none;stroke-width:3.94400001;stroke-linecap:square;stroke-linejoin:miter;stroke-miterlimit:4;stroke-dasharray:none;stroke-dashoffset:0;stroke-opacity:1"
         id="path7757" />
      <g
         transform="matrix(-0.806716,0.5909394,-0.5909394,-0.806716,930.24438,532.89649)"
         style="fill:#000000"
         id="g7759">
        <path
           d="M 382.42022 242.23512 A 4.3130102 4.3130102 0 1 1  373.7942,242.23512 A 4.3130102 4.3130102 0 1 1  382.42022 242.23512 z"
           transform="matrix(1.4166667,0,0,1.4166667,-144.38096,-87.632852)"
           style="fill:#000000;fill-opacity:1;stroke:none;stroke-width:3.94400001;stroke-linecap:square;stroke-linejoin:miter;stroke-miterlimit:4;stroke-dasharray:none;stroke-dashoffset:0;stroke-opacity:1"
           id="path7761" />
        <path
           d="M 382.42022 242.23512 A 4.3130102 4.3130102 0 1 1  373.7942,242.23512 A 4.3130102 4.3130102 0 1 1  382.42022 242.23512 z"
           transform="matrix(1.4166667,0,0,1.4166667,-171.33727,-87.632852)"
           style="fill:#000000;fill-opacity:1;stroke:none;stroke-width:3.94400001;stroke-linecap:square;stroke-linejoin:miter;stroke-miterlimit:4;stroke-dasharray:none;stroke-dashoffset:0;stroke-opacity:1"
           id="path7763" />
      </g>
      <path
         d="M 377.34668,266.36853 L 438.05401,371.51671 L 316.63935,371.51671 L 377.34668,266.36853 z "
         transform="matrix(-0.4636754,-0.3398385,0.6029291,-0.822636,300.07764,891.82071)"
         style="fill:none;fill-opacity:1;stroke:#000000;stroke-width:5.15067482;stroke-linecap:square;stroke-linejoin:miter;stroke-miterlimit:4;stroke-dasharray:none;stroke-dashoffset:0;stroke-opacity:1"
         id="path7767" />
      <path
         d="M 382.42022 242.23512 A 4.3130102 4.3130102 0 1 1  373.7942,242.23512 A 4.3130102 4.3130102 0 1 1  382.42022 242.23512 z"
         transform="matrix(-1.1426305,-0.8374605,0.8374605,-1.1426305,502.90092,1154.2485)"
         style="fill:#000000;fill-opacity:1;stroke:none;stroke-width:3.94400001;stroke-linecap:square;stroke-linejoin:miter;stroke-miterlimit:4;stroke-dasharray:none;stroke-dashoffset:0;stroke-opacity:1"
         id="path7769" />
      <g
         transform="matrix(-0.8065627,-0.5911486,0.5911486,-0.8065627,435.38799,979.62907)"
         style="fill:#000000"
         id="g7771">
        <path
           d="M 382.42022 242.23512 A 4.3130102 4.3130102 0 1 1  373.7942,242.23512 A 4.3130102 4.3130102 0 1 1  382.42022 242.23512 z"
           transform="matrix(1.4166667,0,0,1.4166667,-144.38096,-87.632852)"
           style="fill:#000000;fill-opacity:1;stroke:none;stroke-width:3.94400001;stroke-linecap:square;stroke-linejoin:miter;stroke-miterlimit:4;stroke-dasharray:none;stroke-dashoffset:0;stroke-opacity:1"
           id="path7773" />
        <path
           d="M 382.42022 242.23512 A 4.3130102 4.3130102 0 1 1  373.7942,242.23512 A 4.3130102 4.3130102 0 1 1  382.42022 242.23512 z"
           transform="matrix(1.4166667,0,0,1.4166667,-171.33727,-87.632852)"
           style="fill:#000000;fill-opacity:1;stroke:none;stroke-width:3.94400001;stroke-linecap:square;stroke-linejoin:miter;stroke-miterlimit:4;stroke-dasharray:none;stroke-dashoffset:0;stroke-opacity:1"
           id="path7775" />
      </g>
      <path
         d="M 377.34668,266.36853 L 438.05401,371.51671 L 316.63935,371.51671 L 377.34668,266.36853 z "
         transform="matrix(0.1846018,-0.544433,0.9659132,0.3275137,-96.778775,486.66479)"
         style="fill:none;fill-opacity:1;stroke:#000000;stroke-width:5.15067482;stroke-linecap:square;stroke-linejoin:miter;stroke-miterlimit:4;stroke-dasharray:none;stroke-dashoffset:0;stroke-opacity:1"
         id="path7779" />
      <path
         d="M 382.42022 242.23512 A 4.3130102 4.3130102 0 1 1  373.7942,242.23512 A 4.3130102 4.3130102 0 1 1  382.42022 242.23512 z"
         transform="matrix(0.4549122,-1.3416406,1.3416406,0.4549122,-286.03135,759.04149)"
         style="fill:#000000;fill-opacity:1;stroke:none;stroke-width:3.94400001;stroke-linecap:square;stroke-linejoin:miter;stroke-miterlimit:4;stroke-dasharray:none;stroke-dashoffset:0;stroke-opacity:1"
         id="path7781" />
      <g
         transform="matrix(0.3211145,-0.9470404,0.9470404,0.3211145,-139.81219,642.12322)"
         style="fill:#000000"
         id="g7783">
        <path
           d="M 382.42022 242.23512 A 4.3130102 4.3130102 0 1 1  373.7942,242.23512 A 4.3130102 4.3130102 0 1 1  382.42022 242.23512 z"
           transform="matrix(1.4166667,0,0,1.4166667,-144.38096,-87.632852)"
           style="fill:#000000;fill-opacity:1;stroke:none;stroke-width:3.94400001;stroke-linecap:square;stroke-linejoin:miter;stroke-miterlimit:4;stroke-dasharray:none;stroke-dashoffset:0;stroke-opacity:1"
           id="path7785" />
        <path
           d="M 382.42022 242.23512 A 4.3130102 4.3130102 0 1 1  373.7942,242.23512 A 4.3130102 4.3130102 0 1 1  382.42022 242.23512 z"
           transform="matrix(1.4166667,0,0,1.4166667,-171.33727,-87.632852)"
           style="fill:#000000;fill-opacity:1;stroke:none;stroke-width:3.94400001;stroke-linecap:square;stroke-linejoin:miter;stroke-miterlimit:4;stroke-dasharray:none;stroke-dashoffset:0;stroke-opacity:1"
           id="path7787" />
      </g>
      <g
         style="stroke:#000000;stroke-opacity:1"
         id="g7795">
        <path
           d="M 620.77597 419.07056 A 242.8035 242.8035 0 1 1  135.16898,419.07056 A 242.8035 242.8035 0 1 1  620.77597 419.07056 z"
           transform="matrix(7.2174802e-2,0,0,7.2174802e-2,295.32352,233.26882)"
           style="fill:none;fill-opacity:1;stroke:#000000;stroke-width:55.42100525;stroke-linecap:round;stroke-linejoin:round;stroke-miterlimit:4;stroke-dasharray:none;stroke-dashoffset:0;stroke-opacity:1"
           id="path7789" />
        <path
           d="M 620.77597 419.07056 A 242.8035 242.8035 0 1 1  135.16898,419.07056 A 242.8035 242.8035 0 1 1  620.77597 419.07056 z"
           transform="matrix(7.2174802e-2,0,0,7.2174802e-2,295.32352,545.32811)"
           style="fill:none;fill-opacity:1;stroke:#000000;stroke-width:55.42100525;stroke-linecap:round;stroke-linejoin:round;stroke-miterlimit:4;stroke-dasharray:none;stroke-dashoffset:0;stroke-opacity:1"
           id="path7791" />
        <path
           d="M 322.60361,557.24075 L 322.60361,279.80202"
           style="fill:none;fill-rule:evenodd;stroke:#000000;stroke-width:4;stroke-linecap:butt;stroke-linejoin:miter;stroke-miterlimit:4;stroke-dasharray:none;stroke-opacity:1"
           id="path7793" />
      </g>
      <g
         transform="translate(111.924,0)"
         style="stroke:#000000;stroke-opacity:1"
         id="g7800">
        <path
           d="M 620.77597 419.07056 A 242.8035 242.8035 0 1 1  135.16898,419.07056 A 242.8035 242.8035 0 1 1  620.77597 419.07056 z"
           transform="matrix(7.2174802e-2,0,0,7.2174802e-2,295.32352,233.26882)"
           style="fill:none;fill-opacity:1;stroke:#000000;stroke-width:55.42100525;stroke-linecap:round;stroke-linejoin:round;stroke-miterlimit:4;stroke-dasharray:none;stroke-dashoffset:0;stroke-opacity:1"
           id="path7802" />
        <path
           d="M 620.77597 419.07056 A 242.8035 242.8035 0 1 1  135.16898,419.07056 A 242.8035 242.8035 0 1 1  620.77597 419.07056 z"
           transform="matrix(7.2174802e-2,0,0,7.2174802e-2,295.32352,545.32811)"
           style="fill:none;fill-opacity:1;stroke:#000000;stroke-width:55.42100525;stroke-linecap:round;stroke-linejoin:round;stroke-miterlimit:4;stroke-dasharray:none;stroke-dashoffset:0;stroke-opacity:1"
           id="path7804" />
        <path
           d="M 322.60361,557.24075 L 322.60361,279.80202"
           style="fill:none;fill-rule:evenodd;stroke:#000000;stroke-width:4;stroke-linecap:butt;stroke-linejoin:miter;stroke-miterlimit:4;stroke-dasharray:none;stroke-opacity:1"
           id="path7806" />
      </g>
      <g
         style="stroke:#000000;stroke-opacity:1"
         id="g7830">
        <path
           d="M 322.49289,437.25443 L 257.59247,437.25443 C 248.27045,437.25443 237.65895,430.69428 237.65895,421.4509 C 237.65895,413.6223 246.08854,408.79607 253.72602,408.79917 C 262.00785,408.80251 267.43161,413.84473 267.44319,418.50328 C 267.45477,423.16207 262.18061,426.91242 257.2945,426.87188 C 252.14806,426.82875 247.98897,423.72824 248.03497,420.65553"
           style="fill:none;fill-opacity:1;fill-rule:evenodd;stroke:#000000;stroke-width:4;stroke-linecap:butt;stroke-linejoin:miter;stroke-miterlimit:4;stroke-dasharray:none;stroke-opacity:1"
           id="path7826" />
        <path
           d="M 322.49289,437.25443 L 257.59247,437.25443 C 248.27045,437.25443 237.65895,443.81458 237.65895,453.05796 C 237.65895,460.88656 246.08854,465.71279 253.72602,465.70969 C 262.00785,465.70635 267.43161,460.66413 267.44319,456.00558 C 267.45477,451.34679 262.18061,447.59644 257.2945,447.63698 C 252.14806,447.68011 247.98897,450.78062 248.03497,453.85333"
           style="fill:none;fill-opacity:1;fill-rule:evenodd;stroke:#000000;stroke-width:4;stroke-linecap:butt;stroke-linejoin:miter;stroke-miterlimit:4;stroke-dasharray:none;stroke-opacity:1"
           id="path7828" />
      </g>
      <g
         transform="matrix(-1,0,0,1,756.79779,0)"
         style="stroke:#000000;stroke-opacity:1"
         id="g7834">
        <path
           d="M 322.49289,437.25443 L 257.59247,437.25443 C 248.27045,437.25443 237.65895,430.69428 237.65895,421.4509 C 237.65895,413.6223 246.08854,408.79607 253.72602,408.79917 C 262.00785,408.80251 267.43161,413.84473 267.44319,418.50328 C 267.45477,423.16207 262.18061,426.91242 257.2945,426.87188 C 252.14806,426.82875 247.98897,423.72824 248.03497,420.65553"
           style="fill:none;fill-opacity:1;fill-rule:evenodd;stroke:#000000;stroke-width:4;stroke-linecap:butt;stroke-linejoin:miter;stroke-miterlimit:4;stroke-dasharray:none;stroke-opacity:1"
           id="path7836" />
        <path
           d="M 322.49289,437.25443 L 257.59247,437.25443 C 248.27045,437.25443 237.65895,443.81458 237.65895,453.05796 C 237.65895,460.88656 246.08854,465.71279 253.72602,465.70969 C 262.00785,465.70635 267.43161,460.66413 267.44319,456.00558 C 267.45477,451.34679 262.18061,447.59644 257.2945,447.63698 C 252.14806,447.68011 247.98897,450.78062 248.03497,453.85333"
           style="fill:none;fill-opacity:1;fill-rule:evenodd;stroke:#000000;stroke-width:4;stroke-linecap:butt;stroke-linejoin:miter;stroke-miterlimit:4;stroke-dasharray:none;stroke-opacity:1"
           id="path7838" />
      </g>
      <path
         d="M 406.09375,515.125 C 406.09375,517.84854 405.04986,523.57612 402.90625,528.28125 C 401.83445,530.63382 400.51266,532.73864 399,534.1875 C 397.48734,535.63636 395.90256,536.40705 394.03125,536.40625 L 394.03125,536.3125 L 360.1875,536.3125 L 360.1875,536.40625 C 358.3493,536.38884 356.78671,535.6768 355.3125,534.34375 C 353.81278,532.98763 352.47753,530.98356 351.40625,528.71875 C 349.2637,524.18912 348.1875,518.55006 348.1875,515.21875 L 344.6875,515.21875 L 344.6875,560.90625 L 348.1875,560.90625 C 348.1875,558.18271 349.23463,552.56556 351.375,547.9375 C 352.44518,545.62347 353.80178,543.54794 355.3125,542.125 C 356.82322,540.70206 358.40088,539.90546 360.28125,539.90625 C 360.29191,539.90625 360.30183,539.90629 360.3125,539.90625 L 360.3125,539.8125 L 394,539.8125 L 394,539.90625 C 394.01065,539.90625 394.02061,539.90628 394.03125,539.90625 C 395.9172,539.89946 397.50152,540.62971 399,541.96875 C 400.49848,543.30779 401.8362,545.29223 402.90625,547.53125 C 405.04635,552.00929 406.09375,557.57493 406.09375,560.90625 L 409.59375,560.90625 L 409.59375,515.125 L 406.09375,515.125 z "
         style="fill:#000000;fill-opacity:1;fill-rule:evenodd;stroke:none;stroke-width:3.5;stroke-linecap:square;stroke-linejoin:miter;stroke-miterlimit:4;stroke-dasharray:none;stroke-opacity:1"
         id="path7844" />
      <path
         d="M 375.46875,436.66161 L 375.46875,558.9375 L 375.4375,558.9375 C 375.44426,560.81734 374.73112,562.40653 373.375,563.90625 C 372.01888,565.40597 370.01481,566.74122 367.75,567.8125 C 363.22037,569.95505 357.58131,571.03126 354.25,571.03125 L 354.25,574.53125 L 399.9375,574.53125 L 399.9375,571.03125 C 397.21396,571.03125 391.59681,569.98412 386.96875,567.84375 C 384.65472,566.77357 382.57918,565.41697 381.15625,563.90625 C 379.87891,562.55011 379.11291,561.13458 378.96875,559.5 L 378.96875,436.66161 L 375.46875,436.66161 z "
         style="fill:#000000;fill-opacity:1;fill-rule:evenodd;stroke:none;stroke-width:3.5;stroke-linecap:square;stroke-linejoin:miter;stroke-miterlimit:4;stroke-dasharray:none;stroke-opacity:1"
         id="path7888" />
      <text
         x="378.00018"
         y="219.50148"
         style="font-size:43.43563843px;font-style:normal;font-weight:normal;text-align:center;text-anchor:middle;fill:#000000;fill-opacity:1;stroke:none;stroke-width:1px;stroke-linecap:butt;stroke-linejoin:miter;stroke-opacity:1;font-family:Bitstream Vera Sans"
         id="text7916"
         xml:space="preserve"><tspan
           x="378.00018"
           y="219.50148"
           style="font-family:Times New Roman"
           id="tspan7918">A</tspan></text>
      <text
         x="563.17798"
         y="-170.27699"
         transform="matrix(0.7071068,0.7071068,-0.7071068,0.7071068,0,0)"
         style="font-size:43.43563843px;font-style:normal;font-weight:normal;text-align:center;text-anchor:middle;fill:#000000;fill-opacity:1;stroke:none;stroke-width:1px;stroke-linecap:butt;stroke-linejoin:miter;stroke-opacity:1;font-family:Bitstream Vera Sans"
         id="text7920"
         xml:space="preserve"><tspan
           x="563.17798"
           y="-170.27699"
           style="font-family:Times New Roman"
           id="tspan7922">S</tspan></text>
      <text
         x="-29.236744"
         y="363.89374"
         transform="matrix(0.7071068,-0.7071068,0.7071068,0.7071068,0,0)"
         style="font-size:43.43563843px;font-style:normal;font-weight:normal;text-align:center;text-anchor:middle;fill:#000000;fill-opacity:1;stroke:none;stroke-width:1px;stroke-linecap:butt;stroke-linejoin:miter;stroke-opacity:1;font-family:Bitstream Vera Sans"
         id="text7928"
         xml:space="preserve"><tspan
           x="-29.236744"
           y="363.89374"
           style="font-family:Times New Roman"
           id="tspan7930">H</tspan></text>
      <text
         x="-419.29749"
         y="178.0345"
         transform="matrix(0,-1,1,0,0,0)"
         style="font-size:43.43563843px;font-style:normal;font-weight:normal;text-align:center;text-anchor:middle;fill:#000000;fill-opacity:1;stroke:none;stroke-width:1px;stroke-linecap:butt;stroke-linejoin:miter;stroke-opacity:1;font-family:Bitstream Vera Sans"
         id="text7936"
         xml:space="preserve"><tspan
           x="-419.29749"
           y="178.0345"
           style="font-family:Times New Roman"
           id="tspan7938">T</tspan></text>
      <text
         x="419.46716"
         y="-577.7962"
         transform="matrix(0,1,-1,0,0,0)"
         style="font-size:43.43563843px;font-style:normal;font-weight:normal;text-align:center;text-anchor:middle;fill:#000000;fill-opacity:1;stroke:none;stroke-width:1px;stroke-linecap:butt;stroke-linejoin:miter;stroke-opacity:1;font-family:Bitstream Vera Sans"
         id="text7940"
         xml:space="preserve"><tspan
           x="419.46716"
           y="-577.7962"
           style="font-family:Times New Roman"
           id="tspan7942">T</tspan></text>
      <text
         x="29.406414"
         y="-763.65546"
         transform="matrix(-0.7071068,0.7071068,-0.7071068,-0.7071068,0,0)"
         style="font-size:43.43563843px;font-style:normal;font-weight:normal;text-align:center;text-anchor:middle;fill:#000000;fill-opacity:1;stroke:none;stroke-width:1px;stroke-linecap:butt;stroke-linejoin:miter;stroke-opacity:1;font-family:Bitstream Vera Sans"
         id="text7944"
         xml:space="preserve"><tspan
           x="29.406414"
           y="-763.65546"
           style="font-family:Times New Roman"
           id="tspan7946">A</tspan></text>
      <text
         x="-563.68976"
         y="-229.20242"
         transform="matrix(-0.7071068,-0.7071068,0.7071068,-0.7071068,0,0)"
         style="font-size:43.43563843px;font-style:normal;font-weight:normal;text-align:center;text-anchor:middle;fill:#000000;fill-opacity:1;stroke:none;stroke-width:1px;stroke-linecap:butt;stroke-linejoin:miter;stroke-opacity:1;font-family:Bitstream Vera Sans"
         id="text7948"
         xml:space="preserve"><tspan
           x="-563.68976"
           y="-229.20242"
           style="font-family:Times New Roman"
           id="tspan7950">O</tspan></text>
      <text
         x="-377.83051"
         y="-619.26318"
         transform="scale(-1,-1)"
         style="font-size:43.43563843px;font-style:normal;font-weight:normal;text-align:center;text-anchor:middle;fill:#000000;fill-opacity:1;stroke:none;stroke-width:1px;stroke-linecap:butt;stroke-linejoin:miter;stroke-opacity:1;font-family:Bitstream Vera Sans"
         id="text7952"
         xml:space="preserve"><tspan
           x="-377.83051"
           y="-619.26318"
           style="font-family:Times New Roman"
           id="tspan7954">R</tspan></text>
    </g>
  </g>
</svg>
